<svg xmlns="http://www.w3.org/2000/svg" version="1.1" xmlns:xlink="http://www.w3.org/1999/xlink" xmlns:svgjs="http://svgjs.dev/svgjs" width="2000" height="2000" viewBox="0 0 2000 2000"><g transform="matrix(1,0,0,1,-0.28443113772425477,-0.28443113772459583)"><svg viewBox="0 0 334 334" data-background-color="#e6b17e" preserveAspectRatio="xMidYMid meet" height="2000" width="2000" xmlns="http://www.w3.org/2000/svg" xmlns:xlink="http://www.w3.org/1999/xlink"><g id="tight-bounds" transform="matrix(1,0,0,1,0.04749999999998522,0.04750000000001364)"><svg viewBox="0 0 333.90454557049503 333.90454557049503" height="333.90454557049503" width="333.90454557049503"><g><svg></svg></g><g><svg viewBox="0 0 333.90454557049503 333.90454557049503" height="333.90454557049503" width="333.90454557049503"><g><path d="M0 166.952c0-92.205 74.747-166.952 166.952-166.952 92.205 0 166.952 74.747 166.953 166.952 0 92.205-74.747 166.952-166.953 166.953-92.205 0-166.952-74.747-166.952-166.953zM166.952 324.298c86.899 0 157.345-70.446 157.346-157.346 0-86.899-70.446-157.345-157.346-157.345-86.899 0-157.345 70.446-157.345 157.345 0 86.899 70.446 157.345 157.345 157.346z" data-fill-palette-color="tertiary" fill="#ffffff" stroke="transparent"></path><ellipse rx="160.27418187383762" ry="160.27418187383762" cx="166.95227278524752" cy="166.95227278524752" fill="#ffffff" stroke="transparent" stroke-width="0" fill-opacity="1" data-fill-palette-color="tertiary"></ellipse></g><g transform="matrix(1,0,0,1,103.12689756188763,71.17305217166896)"><svg viewBox="0 0 127.65075044671975 191.55844122715712" height="191.55844122715712" width="127.65075044671975"><g><svg viewBox="0 0 127.65075044671975 191.55844122715712" height="191.55844122715712" width="127.65075044671975"><g><svg viewBox="0 0 213.1584412271571 319.8751170125539" height="191.55844122715712" width="127.65075044671975"><g transform="matrix(1,0,0,1,0,141.9852712859714)"><svg viewBox="0 0 213.1584412271571 177.88984572658248" height="177.88984572658248" width="213.1584412271571"><g id="textblocktransform"><svg viewBox="0 0 213.1584412271571 177.88984572658248" height="177.88984572658248" width="213.1584412271571" id="textblock"><g><svg viewBox="0 0 213.1584412271571 177.88984572658248" height="177.88984572658248" width="213.1584412271571"><g transform="matrix(1,0,0,1,0,0)"><svg width="213.1584412271571" viewBox="0.5 -28.75 34.45000076293945 28.75" height="177.88984572658248" data-palette-color="#e6b17e"><path d="M6.2-28.75L6.2-28.75 16.5-11.5 16.5 0 0.5-26.9 6.2-28.75ZM29.3-28.75L29.3-28.75 18.95-11.5 18.95 0 34.95-26.9 29.3-28.75Z" opacity="1" transform="matrix(1,0,0,1,0,0)" fill="#000000" class="wordmark-text-0" data-fill-palette-color="quaternary" id="text-0"></path></svg></g></svg></g></svg></g></svg></g><g transform="matrix(1,0,0,1,57.17975185918489,0)"><svg viewBox="0 0 98.79893750878733 99.98974806622273" height="99.98974806622273" width="98.79893750878733"><g><svg xmlns="http://www.w3.org/2000/svg" xmlns:xlink="http://www.w3.org/1999/xlink" version="1.1" x="0" y="0" viewBox="7.929999828338623 3.7976627349853516 88.13999938964844 89.20233917236328" enable-background="new 0 0 100 100" xml:space="preserve" height="99.98974806622273" width="98.79893750878733" class="icon-icon-0" data-fill-palette-color="quaternary" id="icon-0"><g fill="#e6b17e" data-fill-palette-color="quaternary"><path d="M52 23c-19.33 0-35 15.67-35 35s15.67 35 35 35 35-15.67 35-35S71.33 23 52 23zM52 88c-14.869 0-26-12.131-26-27s11.131-27 26-27 26.923 12.131 26.923 27S66.869 88 52 88z" fill="#000000" data-fill-palette-color="quaternary"></path><path d="M82.714 4C79.888 3.725 76 3 70.654 8 64.634 13.631 62 21 53 20.923 42 20.829 39.807 14.359 34.121 9 32 7 31 4 22.286 4 14 4 7.93 17 7.93 17c0.746 3.19 3.07-3.998 14.479-3.999C30 13 39.842 31 53 31c13.563 0 22-19 31.126-19 12.913 0 11.286 5.812 11.944 3C96.07 15 93 5 82.714 4z" fill="#000000" data-fill-palette-color="quaternary"></path></g></svg></g></svg></g><g></g></svg></g></svg></g></svg></g></svg></g><defs></defs></svg><rect width="333.90454557049503" height="333.90454557049503" fill="none" stroke="none" visibility="hidden"></rect></g></svg></g></svg>